<?xml version="1.0" encoding="UTF-8"?>
<svg version="1.1" viewBox="0 0 1000 1000" xmlns="http://www.w3.org/2000/svg">
<rect width="1e3" height="1e3" fill="#292929"/>
<g stroke-width="4">
<path d="m556.01 667.58 64.91-33.51 2.04 7.77c1.65 8.55 3.14 15.54 4.08 17.74l-4.08 42.62h-52.12l-6.99-3.45c-2.98-8.25-5.65-16.33-7.77-24.34l-0.07-6.83z" fill="#c99d87"/>
<path d="m456.08 697.72-1.96-4.16c1.02-8.47 2.2-16.79 3.77-24.64l3.61-10.83 72.21 1.09-1.72 9.66c-1.89 6.28-3.14 12.09-3.69 16.48l-19.08 37.29-53.14-24.89z" fill="#c99d87"/>
<path d="m403.1 507.69 4.95-23.07 82.65 4.47 4.94 2.59s66.72 5.34 91.84 31.08c19.78 20.33 22.14 48.36 29.75 88.62 2.04 10.83 4 21.67 5.73 30.46l-66.95 32.65c-11.62-43.96-12.72-65.85-12.64-94.19l-81.16 0.23c-38.46 0.24-67.19-35.24-59.11-72.84z" fill="#3c2c5b"/>
<path d="m543.37 580.38 14.21-35.64c22.92 18.37 18.36 57.85-6.21 111.15-7.3-32.11-8.08-51.57-8-75.51z" fill="#3c2c5b" opacity=".15"/>
<path d="m369.66 521.19c5.11-22.29 13.27-36.26 13.27-36.26l45.92 2.98s95.21 10.6 124.49 45.37c23.86 28.26-9.66 97.1-21.43 135.72h-74.18c6.44-33.36 17.11-62.8 29.83-88.07h-60.52c-46.31 0-64.36-29.12-57.38-59.74z" fill="#3c2c5b"/>
<path d="m499.96 558.09-12.16 22.76h-48.28c26.22 0.08 50.94-25.59 60.44-22.76z" opacity=".15"/>
<path d="m515.03 508.71c15.78 6.36 29.83 14.37 38.46 24.57 16.72 19.86 5.18 59.74-7.3 95.14" fill="none" stroke="#000" stroke-linecap="round" stroke-linejoin="round"/>
<path d="m532.07 668.92h-74.18" fill="none" stroke="#000" stroke-linecap="round" stroke-linejoin="round"/>
<path d="m622.96 641.84-66.95 32.73" fill="none" stroke="#000" stroke-linecap="round" stroke-linejoin="round"/>
<path d="m490.62 300.55c-0.78-9.97-1.49-24.02-9.03-33.83-7.53-9.89-30.06-12.87-49.13-4.55-17.04 7.3-18.13 22.6-18.13 38.38v49.77l1.64 23.15 48.04 7.46v-42.31s14.6 3.92 22.29-3.3c10.13-9.1 5.18-24.8 4.32-34.77z" fill="#c99d87"/>
<path d="m449.65 332.58 14.44 13.1v-7.06s-6.91-1.65-14.44-6.04z" fill="#4c4c4c" opacity=".2"/>
<path d="m483.95 263.82c-7.46-9.97-33.12-16.64-52.2-8.32-17.03 7.3-17.42 28.96-17.42 44.74l-0.08 31.86c6.67-0.47 12.95-3.61 17.5-8.47 0 0-15.23-19.15-3.92-28.57 9.97-8.32 22.13 8.08 22.13 8.08l6.67-15.23 33.36-3.53c-0.55-7.38-1.88-14.99-6.04-20.56z" fill="#17151c"/>
<path d="m529.48 400.71c-7.62-9.66-20.33-24.49-30.46-34.7-15.15-15.15-32.26-18.36-35.01-18.76 0 0-0.31 19.55-19.86 19.55-18.76 0-29.75-19.55-29.75-19.55-11.06 2.99-21.42 8.09-30.53 14.84-9.5 6.91-27.47 26.22-41.84 51.41l39.41 19-2.12 59.65h116.4l-4.55-42.31c2.04 2.91 5.34 6.52 7.85 9.19l30.46-58.32z" fill="#c0bddc"/>
<path d="m391.33 443.72-12.01 48.43h25.74l-2.43-62.79-11.3 14.36z" fill="#4b4b4b" opacity=".2"/>
<path d="m636.85 336.97c0-8.63-38.38 7.85-38.38 7.85s2.36-8.63-0.78-9.42c-3.14-0.78-11.78 5.5-23.47 20.33-11.39 14.37-37.6 54.08-37.6 54.08s-3.06-3.84-7.69-9.65l-30.77 57.77c8 8.08 22.68 19.23 43.25 19.23 35.4 0 55.65-79.12 55.65-79.12 5.49-0.79 9.42-5.5 9.42-5.5 3.37 0.87 6.98 0.63 10.2-0.78 8.48-3.61 6.28-9.42 6.28-9.42 7.06-7.85-1.57-13.27-1.57-13.27s4.71-3.13 2.36-9.41c-1.65-4.48-10.21-7.85-10.21-7.85s23.31-9.34 23.31-14.84z" fill="#c99d87"/>
<path d="m529.95 419.86 6.67-10.05s-2.04-2.43-5.18-6.43l-1.49 16.48z" fill="#4c4c4c" opacity=".2"/>
<path d="m488.03 419.31 3.14 30.53c2.04 2.91 4.4 5.66 6.91 8.25 2.98 3.06 6.98 6.51 11.77 9.65l-21.82-48.43z" fill="#4b4b4b" opacity=".2"/>
<path d="m535.83 409.11-6.28 10.2" fill="none" stroke="#4c4c4c" stroke-linecap="round" stroke-linejoin="round"/>
<path d="m488.03 414.21 3.14 35.63" fill="none" stroke="#4b4b4b" stroke-linecap="round" stroke-linejoin="round"/>
<path d="m434.81 305.02 5.89 5.81" fill="none" stroke="#4c4c4c" stroke-linecap="round" stroke-linejoin="round"/>
<path d="m464.17 340.11c-6.99-1.73-10.83-4.79-10.83-4.79" fill="none" stroke="#4c4c4c" stroke-linecap="round" stroke-linejoin="round"/>
<path d="m521.39 522.21h-91.76c-6.04 0-8.87-4.86-6.51-10.83l24.17-59.65c2.44-6.05 9.27-10.83 15.39-10.83h91.68c6.04 0 8.87 4.86 6.51 10.83l-24.17 59.65c-2.44 6.05-9.34 10.83-15.31 10.83z" fill="#cecece"/>
<path d="m541.47 463.33c2.87-2.44 3.77-6.11 1.99-8.19-1.76-2.08-5.52-1.79-8.4 0.65-2.87 2.45-3.76 6.12-2 8.2 1.78 2.08 5.54 1.79 8.41-0.66z" fill="#f9f9f9"/>
<path d="m471.7 318.37c1.26 1.8 3.3 2.98 5.5 3.14" fill="none" stroke="#4c4c4c" stroke-linecap="round" stroke-linejoin="round"/>
<path d="m491.96 481.95c0.39-3.22-21.9-10.99-42.31-15.62-21.35-4.95-61.07-10.21-61.07-10.21s3.85-7.06 8.24-16.4l-54.63-26.45c-6.98 12.24-15.62 28.57-19.54 42.85-11.78 43.88 19.54 46.24 35.24 47.02 15.7 0.79 57.22-2.35 57.22-2.35s34.46 10.2 44.66 10.2c10.21 0 9.42-4.71 9.42-4.71s10.99 0.79 10.21-6.28c0 0 13.42-2.12 6.28-7.85-3.93-3.14-24.26-10.99-25.83-11.77 8.64 0.78 31.32 7.85 32.11 1.57z" fill="#c99d87"/>
<path d="m389.37 454.48-21.2-3.14" fill="none" stroke="#4c4c4c" stroke-linecap="round" stroke-linejoin="round"/>
<path d="m396.43 439.64 8.01-13.97" fill="none" stroke="#4b4b4b" stroke-linecap="round" stroke-linejoin="round"/>
<path d="m469.27 506.2-25.12-8.55" fill="none" stroke="#4c4c4c" stroke-linecap="round" stroke-linejoin="round"/>
<path d="m479.4 499.14-30.54-12.48" fill="none" stroke="#4c4c4c" stroke-linecap="round" stroke-linejoin="round"/>
<path d="m462.21 479.59-8.64-3.14" fill="none" stroke="#4c4c4c" stroke-linecap="round" stroke-linejoin="round"/>
<path d="m598.47 344.82-4.71 10.99s1.57 15.62-4.71 24.25" fill="none" stroke="#4c4c4c" stroke-linecap="round" stroke-linejoin="round"/>
<path d="m621.15 370.72c-8.63 5.5-16.32 3.3-17.97 1.57-2.35-2.35-1.57-7.85 6.28-10.99" fill="none" stroke="#4c4c4c" stroke-linecap="round" stroke-linejoin="round"/>
<path d="m621.94 383.2c-4.71 2.36-14.05 3.93-17.19 0-3.14-3.92 1.57-8.63 1.57-8.63" fill="none" stroke="#4c4c4c" stroke-linecap="round" stroke-linejoin="round"/>
<path d="m604.75 393.41c-2.59-1.96-3.14-5.65-1.18-8.24 0.32-0.48 0.71-0.87 1.18-1.18" fill="none" stroke="#4c4c4c" stroke-linecap="round" stroke-linejoin="round"/>
<path d="m479.24 307.46c0.47 1.18 1.1 3.06 0.78 4.08-0.31 0.63-0.86 1.18-1.57 1.41" fill="none" stroke="#4c4c4c" stroke-linecap="round" stroke-linejoin="round"/>
<path d="m468.02 304.63c1.29 0 2.35-1.06 2.35-2.35 0-1.31-1.06-2.36-2.35-2.36-1.31 0-2.36 1.05-2.36 2.36 0 1.29 1.05 2.35 2.36 2.35z" fill="#17151c"/>
<path d="m484.89 303.45c1.3 0 2.36-1.05 2.36-2.35s-1.06-2.35-2.36-2.35-2.35 1.05-2.35 2.35 1.05 2.35 2.35 2.35z" fill="#17151c"/>
<path d="m603.18 387.6c0-0.79 0.31-1.65 0.94-2.59 0 0-5.41-5.42 0.47-10.83 0 0-6.43-5.11-1.33-11.86 0 0-6.67-2.51-7.46-7.69 0 0-1.73 6.99-2.2 8.79 0 0 4.09 10.99-2.98 24.65 0.08-0.08 6.83-2.12 12.56-0.47z" fill="#4c4c4c" opacity=".2"/>
<path d="m553.02 733.83c-7.69-12.79-24.88-16.17-25.04-42.15 0-1.41 0-2.98 0.16-4.55 0.08-0.63 0.16-1.34 0.24-2.04h-17.12c-6.12 0-10.75 5.41-9.73 11.46l2.67 16.79s-18.84-18.6-50-19.93c-0.63 5.57-1.18 11.22-1.57 17.11-0.16 2.2-0.23 4.39-0.39 6.51-0.24 5.42-0.55 11.15-0.55 16.88v0.41l97.19 2.82 4.14-3.31z" fill="#e3e0fc"/>
<path d="m553.02 733.83h-101.35c-0.14 4.71-0.06 9.58 0.1 14.44h105.02c0-3.92-0.63-7.22-1.57-10.04-0.71-1.57-1.41-3.06-2.2-4.4z" fill="#c0bddc"/>
<path d="m530.42 705.5-11.62 4.78" fill="none" stroke="#1e1e1e" stroke-linecap="round" stroke-linejoin="round"/>
<path d="m535.75 714.37-9.81 7.37" fill="none" stroke="#1e1e1e" stroke-linecap="round" stroke-linejoin="round"/>
<path d="m504.12 713.34 4.24 20.49" fill="none" stroke="#1e1e1e" stroke-linecap="round" stroke-linejoin="round"/>
<path d="m670.45 690.35c-12.64-8.09-29.83-3.69-41.6-26.85-0.63-1.33-1.34-2.67-1.97-4.16 0-0.08-0.07-0.08-0.07-0.16l-12.17 5.89c-6.28 2.98-8.4 10.91-4.4 16.72l8.8 12.56s-26.06-8.87-55.42 4.55c1.8 5.03 3.85 10.05 5.96 15.15 0.87 2.04 1.73 4.08 2.6 6.12 2.19 4.95 4.78 10.44 7.3 15.55 0.07 0.15 1.16 0.78 1.49 0.97l89.53-44.82c0.22-0.39 0.18-1.37-0.05-1.52z" fill="#e3e0fc"/>
<path d="m673.67 692.86c-1.02-1.02-2.12-1.81-3.22-2.51l-90.98 45.37c2.12 4.16 4.24 8.32 6.52 12.55l93.96-46.86c-1.89-3.76-4.01-6.51-6.28-8.55z" fill="#c0bddc"/>
<path d="m638.42 675.43-8 9.66" fill="none" stroke="#1e1e1e" stroke-linecap="round" stroke-linejoin="round"/>
<path d="m647.69 680.3-5.26 10.99" fill="none" stroke="#1e1e1e" stroke-linecap="round" stroke-linejoin="round"/>
<path d="m619.11 694.35 13.03 15.93" fill="none" stroke="#1e1e1e" stroke-linecap="round" stroke-linejoin="round"/>
<path d="m370.45 518.05h21.82l-3.45 20.33c-1.42 8.09-8.48 14.05-16.72 14.05" fill="none" stroke="#000" stroke-linecap="round" stroke-linejoin="round"/>
<path d="m487.72 580.93s6.28-11.78 9.26-17.27" fill="none" stroke="#000" stroke-linecap="round" stroke-linejoin="round"/>
</g>
</svg>
